                           888      888 888               888 888 
                           888      888 888               888 888 
                           888      888 888               888 888 
              .d88b.   .d88888  .d88888 88888b.   8888b.  888 888 
             d88""88b d88" 888 d88" 888 888 "88b     "88b 888 888 
             888  888 888  888 888  888 888  888 .d888888 888 888 
             Y88..88P Y88b 888 Y88b 888 888 d88P 888  888 888 888 
              "Y88P"   "Y88888  "Y88888 88888P"  "Y888888 888 888 
                                       -links.com 


The Hangover is a 2009 comedy film directed by Todd Phillips, written by Jon Lucas and produced by Todd Phillips and Daniel Goldberg. The film was made by Legendary Pictures for Warner Bros.. It stars Bradley Cooper, Ed Helms, Zach Galifianakis, Justin Bartha, and Heather Graham.

The plot follows four friends who travel to Las Vegas for a bachelor party, only to wake up the next morning not remembering a thing and missing the groom, whose wedding is scheduled to occur the next day. The film was released in North America on June 5, 2009, to critical praise and box office success



                                    +-+-+-+-+
                                    |c|a|s|t|
                                    +-+-+-+-+
                                         
                  Actor                              Role


                  Bradley Cooper .................  Phil Wenneck 

                  Ed Helms .......................  Stu Price 

                  Zach Galifianakis ..............  Alan Garner 
            
                  Justin Bartha ..................  Doug Billings 

                  Heather Graham .................  Jade 

                  Sasha Barrese ..................  Tracy Garner 

                  Jeffrey Tambor .................  Sid Garner 

                  Ken Jeong ......................  Mr. Chow 

                  Rachael Harris .................  Melissa 

                  Mike Tyson .....................  Himself 


General
Complete name                    : The Hangover 
Format                           : AVI
Format/Info                      : Audio Video Interleave
File size                        : 981 MiB
Duration                         : 1h 35mn
Overall bit rate                 : 1 434 Kbps

Video
Format                           : MPEG-4 Visual
Format profile                   : Streaming Video@L1
Format settings, BVOP            : Yes
Format settings, QPel            : No
Format settings, GMC             : No warppoints
Format settings, Matrix          : Default
Muxing mode                      : Packed bitstream
Codec ID                         : XVID
Codec ID/Hint                    : XviD
Duration                         : 1h 35mn
Bit rate                         : 1 231 Kbps
Width                            : 1 024 pixels
Height                           : 582 pixels
Display aspect ratio             : 16/9
Frame rate                       : 29.970 fps
Resolution                       : 24 bits
Colorimetry                      : 4:2:0
Scan type                        : Progressive
Bits/(Pixel*Frame)               : 0.069
Stream size                      : 842 MiB (86%)
Writing library                  : XviD 1.1.0 (UTC 2005-11-22)

Audio
Format                           : MPEG Audio
Format version                   : Version 1
Format profile                   : Layer 3
Codec ID                         : 55
Codec ID/Hint                    : MP3
Duration                         : 1h 35mn
Bit rate mode                    : Constant
Bit rate                         : 192 Kbps
Channel(s)                       : 2 channels
Sampling rate                    : 44.1 KHz
Resolution                       : 16 bits
Video delay                      : 26ms
Stream size                      : 131 MiB (13%)
Alignment                        : Split accross interleaves
Interleave, duration             : 33 ms (1.00 video frame)
Title                            : Audio Stream
Writing library                  : LAME3.92


For more oddball torrents  http://thepiratebay.org/user/oddball-links `                                                                                                            Please seed after downloading `                                                                                            :::===  :::===== :::===== :::====       :::= === :::====  :::====
        :::     :::      :::      :::  ===      :::===== :::  === :::====
         =====  ======   ======   ===  ===      ======== ===  ===   ===  
            === ===      ===      ===  ===      === ==== ===  ===   ===  
        ======  ======== ======== =======       ===  ===  ======    ===  
                                                                         
                  :::=====  :::====  :::===== :::===== :::==== 
                  :::       :::  === :::      :::      :::  ===
                  === ===== =======  ======   ======   ===  ===
                  ===   === === ===  ===      ===      ===  ===
                   =======  ===  === ======== ======== =======	